<svg width="35" height="34" viewBox="0 0 35 34" fill="none" xmlns="http://www.w3.org/2000/svg">
<path d="M32.4259 11.374C32.2934 9.65123 30.9684 7.44262 29.6434 6.38248C28.1534 5.29755 26.6053 4.29481 25.0059 3.37877C23.4187 2.43784 21.7822 1.58262 20.1035 0.816773C19.2067 0.450921 18.2452 0.270604 17.2768 0.286705C16.3081 0.26635 15.3457 0.446828 14.4502 0.816773C12.7717 1.58317 11.1353 2.43837 9.54771 3.37877C6.98606 4.9248 4.91025 6.38248 4.91025 6.38248C3.84902 7.27075 3.03836 8.40733 2.54218 9.67933C2.42059 9.99105 2.66057 10.3136 2.99516 10.3136H4.81485C5.18527 10.3136 5.52017 10.1054 5.72219 9.79491C6.08647 9.23508 6.53559 8.72806 7.05834 8.29351C7.05834 8.29351 8.7723 7.09821 10.8874 5.83046C12.1982 5.05934 13.5494 4.35807 14.9353 3.72963C15.6747 3.42627 16.4693 3.27828 17.2692 3.29497C18.0687 3.28177 18.8626 3.42963 19.6031 3.72963C20.9891 4.35763 22.3404 5.05891 23.6509 5.83046C24.9715 6.58162 26.2497 7.40386 27.48 8.29351C28.574 9.16282 29.668 10.9739 29.7774 12.3865C29.7774 12.3865 30.0327 14.4874 30.0691 16.9758C30.0669 18.5126 29.9817 20.0481 29.8139 21.5759C29.5594 23.1755 28.7303 24.6295 27.48 25.6689C27.48 25.6689 25.766 26.9004 23.6509 28.1681C22.3401 28.9393 20.9889 29.6405 19.6031 30.269C18.8636 30.5723 18.069 30.7203 17.2692 30.7036C16.4704 30.7203 15.6765 30.5761 14.9353 30.2798C13.5492 29.6518 12.198 28.9506 10.8874 28.179C8.7723 26.9475 7.05834 25.6797 7.05834 25.6797C6.60031 25.3158 6.14228 24.7867 5.75382 24.191C5.55487 23.8859 5.2236 23.685 4.85935 23.685H3.00764C2.66875 23.685 2.42942 24.0148 2.56143 24.327C3.10056 25.6016 4.0054 26.8612 4.91025 27.5852C4.91025 27.5852 6.98606 29.1312 9.54771 30.6331C11.135 31.574 12.7715 32.4292 14.4502 33.1951C15.3478 33.5564 16.3094 33.7322 17.2768 33.7119C18.2455 33.7322 19.2079 33.5518 20.1035 33.1818C21.7819 32.4154 23.4184 31.5602 25.0059 30.6198C27.5676 29.0738 29.6434 27.5719 29.6434 27.5719C31.1577 26.3044 32.1619 24.5312 32.47 22.5805C32.6733 20.7174 32.7765 18.8447 32.7792 16.9706C32.735 13.9359 32.4259 11.374 32.4259 11.374Z" fill="url(#paint0_linear_10590_121748)"/>
<path d="M1.77441 13.3243C1.77441 12.9551 2.07603 12.6558 2.4481 12.6558H12.8902C13.2623 12.6558 13.5639 12.9551 13.5639 13.3243V15.33C13.5639 15.6993 13.2623 15.9986 12.8902 15.9986H1.77441V13.3243Z" fill="#0066B3"/>
<path d="M1.77441 18.0044H22.9954C23.3675 18.0044 23.6691 18.3037 23.6691 18.673V20.6787C23.6691 21.0479 23.3675 21.3472 22.9954 21.3472H2.4481C2.07603 21.3472 1.77441 21.0479 1.77441 20.6787V18.0044Z" fill="#EE2F53"/>
<defs>
<linearGradient id="paint0_linear_10590_121748" x1="17.5507" y1="0.285156" x2="17.5507" y2="33.7135" gradientUnits="userSpaceOnUse">
<stop stop-color="#0066B3"/>
<stop offset="0.354167" stop-color="#0066B3"/>
<stop offset="0.6875" stop-color="#EE2F53"/>
<stop offset="1" stop-color="#EE2F53"/>
</linearGradient>
</defs>
</svg>
