<?xml version="1.0" encoding="utf-8"?>
<!-- Generator: Adobe Illustrator 28.0.0, SVG Export Plug-In . SVG Version: 6.00 Build 0)  -->
<svg version="1.1" id="Слой_1" xmlns="http://www.w3.org/2000/svg" xmlns:xlink="http://www.w3.org/1999/xlink" x="0px" y="0px"
	 viewBox="0 0 1000 157.6" style="enable-background:new 0 0 1000 157.6;" xml:space="preserve">
<style type="text/css">
	.st0{fill:#EE3F58;}
	.st1{fill:#0065B1;}
</style>
<path class="st0" d="M653,4.1h-81.5c-0.7,0-1.4,0.7-1.4,1.4c-2.1,37-8.9,76.7-19.2,108.9v1.4c0.7,0.7,0.7,0.7,1.4,0.7h28.1
	c0.7,0,1.4-0.7,1.4-0.7c7.5-24.7,14.4-57.6,16.4-85h26.7v85c0,0.7,0.7,1.4,1.4,1.4H653c0.7,0,1.4-0.7,1.4-1.4V6.2
	C654.4,4.8,653.7,4.1,653,4.1 M999,4.1h-26.7c-0.7,0-1.4,0.7-1.4,1.4v84.3c-6.2,2.1-11.6,2.1-18.5,2.1c-17.8,0-21.9-5.5-21.9-28.8
	V6.2c0-0.7-0.7-1.4-1.4-1.4h-26.7c-0.7,0-1.4,0.7-1.4,1.4v61c0,38.4,13,52.8,45.9,52.8c18.5,0,39.7-4.8,52.1-9.6
	c0.7,0,0.7-0.7,0.7-1.4V6.2C1000.4,4.8,999.7,4.1,999,4.1 M433.1,4.8h-27.4c-0.7,0-1.4,0.7-1.4,0.7c-4.1,16.4-13,44.5-24.7,74
	L352.2,4.8c0-0.7-0.7-0.7-1.4-0.7h-27.4c-0.7,0-0.7,0.7-1.4,0.7c-0.7,0.7-0.7,0.7,0,1.4l41.1,111.7c-4.1,8.9-8.2,15.8-11.6,22.6
	c-2.7,4.8-5.5,10.3-8.2,15.1c-0.7,0.7,0,0.7,0,1.4c0.7,0.7,0.7,0.7,1.4,0.7h29.5c0.7,0,0.7-0.7,1.4-0.7c4.8-9.6,11.6-23.3,17.1-37
	c17.1-40.4,31.5-78.8,41.8-113.7c0-0.7,0-0.7-0.7-1.4H433.1 M530.3,90.4c0-0.7-0.7-0.7-0.7-0.7h-1.4c-6.2,2.1-18.5,4.8-27.4,4.8
	c-18.5,0-27.4-4.8-27.4-33.6c0-22.6,2.7-33.6,27.4-33.6c6.9,0,13.7,0.7,21.9,3.4c0.7,0,1.4,0,2.1-0.7c3.4-6.2,6.9-13,11-21.9V6.9
	c0-0.7-1.4-1.4-1.4-1.4c-11-3.4-24-5.5-35.6-5.5c-39.1,0-56.2,17.8-56.2,59.6s17.1,60.3,56.2,60.3c9.6,0,28.8-2.1,38.4-6.2
	c0.7-0.7,0.7-0.7,0.7-2.1C537.9,111.7,530.3,90.4,530.3,90.4z M784.6,4.8h-27.4c-0.7,0-1.4,0.7-1.4,0.7c-4.1,16.4-13,44.5-24.7,74
	L703.7,4.8c0-0.7-0.7-0.7-1.4-0.7h-27.4c-0.7,0-0.7,0.7-1.4,0.7c-0.7,0.7-0.7,0.7,0,1.4l41.1,111.7c-4.1,8.9-8.2,15.1-11.6,22.6
	c-2.7,4.8-5.5,10.3-8.2,15.1c-0.7,0.7,0,0.7,0,1.4c0.7,0.7,0.7,0.7,1.4,0.7h29.5c0.7,0,0.7-0.7,1.4-0.7c4.8-9.6,11.6-23.3,17.1-37
	c17.1-40.4,31.5-78.8,41.1-113.7C785.2,5.5,785.2,5.5,784.6,4.8C785.2,4.8,784.6,4.8,784.6,4.8 M884.6,4.1h-78.8
	c-0.7,0-1.4,0.7-1.4,1.4v108.9c0,0.7,0.7,1.4,1.4,1.4h26.7c0.7,0,1.4-0.7,1.4-1.4V30.1H875c0.7,0,1.4-0.7,1.4-0.7
	c3.4-7.5,6.2-15.1,9.6-23.3V4.8C885.3,4.8,884.6,4.1,884.6,4.1"/>
<path class="st1" d="M142.5,94.6c-17.8,0-23.3-4.8-23.3-34.3c0-31.5,6.2-34.3,23.3-34.3s24,2.7,24,34.3
	C165.8,90.4,160.3,94.6,142.5,94.6 M142.5,0.7c-38.4,0-53.4,16.4-53.4,58.9c0,43.2,15.1,59.6,53.4,59.6s54.1-16.4,54.1-59.6
	C196.7,17.8,180.9,0.7,142.5,0.7 M302.9,90.4c0-0.7-0.7-0.7-0.7-0.7h-1.4c-6.2,2.1-18.5,4.8-27.4,4.8c-18.5,0-27.4-4.8-27.4-33.6
	c0-22.6,2.7-33.6,27.4-33.6c6.9,0,13.7,0.7,21.9,3.4c0.7,0,1.4,0,2.1-0.7c3.4-6.2,6.9-13,11-21.9V6.9c0-0.7-0.7-0.7-0.7-0.7
	c-10.3-3.4-24-4.8-34.9-4.8c-39.1,0-56.2,17.8-56.2,59.6s17.1,60.3,56.2,60.3c9.6,0,28.8-2.1,38.4-6.2c0.7-0.7,0.7-0.7,0.7-2.1
	C311.8,113.1,302.9,90.4,302.9,90.4z M80.2,4.1H1.4C0.7,4.1,0,4.8,0,6.2v108.9c0,0.7,0.7,1.4,1.4,1.4h26.7c0.7,0,1.4-0.7,1.4-1.4
	v-85h41.1c0.7,0,0.7-0.7,1.4-0.7c3.4-7.5,6.9-15.8,9.6-23.3V4.8C81.5,4.8,80.9,4.1,80.2,4.1"/>
</svg>
