<?xml version="1.0" encoding="UTF-8"?><svg id="uuid-4815d3e9-0d3a-4db2-ab89-15c469ea3629" xmlns="http://www.w3.org/2000/svg" viewBox="0 0 32 32"><rect width="32" height="32" style="fill:none;"/><path d="M23.0917,27.8176c-.3168.2055-.7255.2084-1.062.037-1.0076-.5131-2.0229-2.0955-2.4501-2.8242-.4038-.9289,1.9676.3909,2.2414.4661,1.0251.3948,2.1717,1.7365,1.2706,2.3212Z" style="fill:#e33b11;"/><path d="M21.9557,13.1286c.0891-.4601.1512-.9347.1065-1.4078-.0677-.7158-.706-1.9637-1.365-2.2794-1.2873-.6168-1.7723.5331-2.5919,1.2432-1.3413,1.1621-3.118,1.5296-4.6847.5137-.6602-.4281-1.2216-1.3096-1.8235-1.7168-1.363-.922-2.6389,1.0714-2.7549,2.2493-.1651,1.6779,1.2851,3.185,2.283,4.3651,1.9625,2.3207,4.209,4.356,6.3546,6.4499.5678.5541,1.1442,1.1116,1.6452,1.7258.0669.0821.0017.2057-.1039.1974-.2124-.0167-.4608-.1487-.6322-.2263-1.517-.6866-3.5775-2.0702-5.0089-3.009-3.391-2.224-8.4254-5.9095-7.4322-10.6264.6853-3.2547,4.5647-5.8709,7.5203-3.5171.4783.3809.8364,1.0036,1.2449,1.3557.2899.2499.7263.4502,1.0997.2589.0984-.0504.6409-.5534.7712-.6821.2426-.2396.4368-.5749.7376-.8286,3.0993-2.6129,7.3922.3569,7.7504,3.912.0854.8477-.0675,1.6146-.2004,2.4388-.7465-.6543-2.0174-.826-2.9159-.4165Z" style="fill:#e33b11;"/><path d="M24.8716,13.545c.2836.2486.9145,1.2277,1.0609,1.5943.4386,1.0984.2683,2.1485-.3126,3.1622-.8396,1.465-2.8079,3.2942-4.356,3.9741-.7727.3393-1.1209.3805-1.9111.0666-1.8142-.7207-4.7576-3.5118-4.9919-5.5249-.3046-2.6181,2.5071-5.1443,4.8127-3.2701.4741.3854.7469,1.2067,1.5279.67.2189-.1505.2706-.3713.4268-.5103.1694-.1506.6316-.489.8274-.5783.8984-.4096,2.1694-.2378,2.9159.4165ZM22.4021,15.0325c-.1873.1823-.3392.4843-.6028.6987-.706.5742-1.7077.7335-2.5521.3655-.5476-.2386-.6225-.5315-.9854-.8889-1.1448-1.1274-2.2265.349-2.0108,1.5941.1883,1.0867,2.6497,3.2759,3.6506,3.7419.1657.0771.2306.0925.4153.063.8699-.1386,2.7053-1.8623,3.2459-2.592.4927-.665.8114-1.1225.6613-2.0004-.1375-.8041-1.0945-1.6897-1.8219-.982Z" style="fill:#4683c1;"/><circle cx="20.2509" cy="12.5451" r=".8786" style="fill:#4683c1;"/><circle cx="15.4189" cy="5.5533" r="1.5754" style="fill:#e33b11;"/></svg>