<?xml version="1.0" encoding="UTF-8"?><svg id="a" xmlns="http://www.w3.org/2000/svg" viewBox="0 0 32 32"><rect width="32" height="32" style="fill:none;"/><rect x="1" y="1" width="30" height="30" rx="5" ry="5" style="fill:#fff;"/><path d="M26,2c2.21,0,4,1.79,4,4v20c0,2.21-1.79,4-4,4H6c-2.21,0-4-1.79-4-4V6c0-2.21,1.79-4,4-4h20M26,0H6C2.69,0,0,2.69,0,6v20c0,3.31,2.69,6,6,6h20c3.31,0,6-2.69,6-6V6c0-3.31-2.69-6-6-6h0Z" style="fill:#dc272d;"/><g id="b"><rect x="5" y="4" width="16" height="20" rx="4" ry="4" style="fill:#dc272d;"/></g><path id="c" d="M19,14v6c0,1.1-.9,2-2,2h-8c-1.1,0-2-.9-2-2v-6c0-1.29,1.34-1.29,3-1.29s2.43.86,3,1.29,1.37.97,3,1.29,3-.58,3-1.29Z" style="fill:#fff;"/><g id="d"><circle cx="10.16" cy="16.35" r="1.92" style="fill:#dc272d;"/><circle cx="16.63" cy="18.26" r="1.41" style="fill:#dc272d;"/><circle cx="12.77" cy="19.98" r="1.11" style="fill:#dc272d;"/></g><path d="M12,24v1c0,1.66,1.34,3,3,3h8c1.66,0,3-1.34,3-3V5c0-.55-.45-1-1-1h0c-.55,0-1,.45-1,1v20c0,.55-.45,1-1,1h-8c-.55,0-1-.45-1-1v-1h-2Z" style="fill:#dc272d;"/><rect x="23.5" y="6.5" width="3" height="5" rx=".5" ry=".5" style="fill:#fff;"/><path d="M26,7v4h-2v-4h2M26,6h-2c-.55,0-1,.45-1,1v4c0,.55.45,1,1,1h2c.55,0,1-.45,1-1v-4c0-.55-.45-1-1-1h0Z" style="fill:#dc272d;"/></svg>